<svg xmlns="http://www.w3.org/2000/svg" viewBox="0 0 60.857 45">
  <defs>
    <style>
      .cls-1 {
        stroke: #000;
        stroke-miterlimit: 10;
      }
    </style>
  </defs>
  <g id="Group_7" data-name="Group 7" transform="translate(0.5 0.5)">
    <g id="add-contact">
      <path id="Shape" class="cls-1" d="M9.921,19.714a9.857,9.857,0,1,1,9.921-9.857A9.9,9.9,0,0,1,9.921,19.714Zm0-17.348A7.491,7.491,0,1,0,17.46,9.857,7.524,7.524,0,0,0,9.921,2.365Z" transform="translate(8.73)"/>
      <path id="Shape-2" data-name="Shape" class="cls-1" d="M9.921,19.714a9.857,9.857,0,1,1,9.921-9.857A9.9,9.9,0,0,1,9.921,19.714Zm0-17.348A7.491,7.491,0,1,0,17.46,9.857,7.524,7.524,0,0,0,9.921,2.365Z" transform="translate(34.921)"/>
      <path id="Shape-3" data-name="Shape" class="cls-1" d="M23.835,8.655a1.2,1.2,0,0,0,1.67.213,1.178,1.178,0,0,0,.214-1.659A18.741,18.741,0,0,0,.524,3.165,1.178,1.178,0,0,0,.2,4.808a1.2,1.2,0,0,0,1.653.318,16.349,16.349,0,0,1,21.978,3.53Z" transform="translate(33.888 24.287)"/>
      <path id="Shape-4" data-name="Shape" class="cls-1" d="M18.651,0A18.612,18.612,0,0,0,0,18.53a1.191,1.191,0,0,0,2.381,0,16.27,16.27,0,0,1,32.54,0,1.191,1.191,0,0,0,2.381,0A18.612,18.612,0,0,0,18.651,0Z" transform="translate(0 24.287)"/>
    </g>
  </g>
</svg>
