<svg id="idea_1_" data-name="idea (1)" xmlns="http://www.w3.org/2000/svg" viewBox="0 0 51 62">
  <path id="Shape" d="M30.846,7.36A16.913,16.913,0,0,0,5.011,4.874a16.854,16.854,0,0,0-.659,23.3l2.576,3.47a.9.9,0,0,0,1.25.188.884.884,0,0,0,.189-1.242l-2.6-3.5a.852.852,0,0,0-.056-.068A15.09,15.09,0,0,1,16.883,1.776h.077A15.091,15.091,0,0,1,29.365,8.355a.9.9,0,0,0,1.242.238A.884.884,0,0,0,30.846,7.36Z" transform="translate(9 7)"/>
  <g id="Group" transform="translate(16 18)">
    <path id="Shape-2" data-name="Shape" d="M0,0H0Z" transform="translate(3.45 29.495)"/>
    <path id="Shape-3" data-name="Shape" d="M14.954,44H4.384a.916.916,0,0,1-.891-.713l-.64-2.913h-.6a.911.911,0,0,1-.913-.907V36.747H.913A.911.911,0,0,1,0,35.84V32.214a.91.91,0,0,1,.913-.906h.425v-2.72a.911.911,0,0,1,.913-.907H2.3c-.35-.917-.724-1.813-1.113-2.662a.9.9,0,0,1,.452-1.2.914.914,0,0,1,1.208.449c.5,1.089.969,2.237,1.395,3.414H15.1a43.42,43.42,0,0,1,3.046-6.629c.017-.029.036-.058.059-.089l1.046-1.41.045-.061.363-.49.725-.979.612-.827a.837.837,0,0,1,.059-.071A15.369,15.369,0,0,0,25.065,6.748a15.467,15.467,0,0,0-1.008-5.521.894.894,0,0,1,.02-.691A.913.913,0,0,1,24.908,0a.917.917,0,0,1,.854.586,17.279,17.279,0,0,1-3.33,17.72l-.584.79-.78,1.054-.034.046-.437.59-.653.88-.012.016L19.7,22a40.48,40.48,0,0,0-2.66,5.685h.047a.911.911,0,0,1,.913.907v2.72h.426a.91.91,0,0,1,.912.906V35.84a.91.91,0,0,1-.912.907H18v2.719a.911.911,0,0,1-.913.907h-.6l-.64,2.913A.915.915,0,0,1,14.954,44ZM4.721,40.373l.4,1.813h9.1l.4-1.813ZM3.163,36.747V38.56H16.176V36.747ZM1.824,33.12v1.813H17.513V33.12H9.669a.906.906,0,1,1,0-1.813h6.507V29.494H3.167l0,1.813H5.756a.906.906,0,1,1,0,1.813Z" transform="translate(0.061 0.001)"/>
    <path id="Shape-4" data-name="Shape" d="M.45,0h0Z" transform="translate(15.806 29.495)"/>
  </g>
  <path id="Shape-5" data-name="Shape" d="M1,0A.959.959,0,0,0,0,.913V5.087A.959.959,0,0,0,1,6a.959.959,0,0,0,1-.913V.913A.959.959,0,0,0,1,0Z" transform="translate(24)"/>
  <path id="Shape-6" data-name="Shape" d="M3.875,3.742,1.741.419A.992.992,0,0,0,.467.113.794.794,0,0,0,.125,1.258L2.259,4.581A.957.957,0,0,0,3.068,5a1.01,1.01,0,0,0,.466-.112A.794.794,0,0,0,3.875,3.742Z" transform="translate(13 4)"/>
  <path id="Shape-7" data-name="Shape" d="M4.581,2.259,1.258.125A.794.794,0,0,0,.113.467.992.992,0,0,0,.419,1.741L3.742,3.875A.771.771,0,0,0,4.16,4a.826.826,0,0,0,.727-.467A.992.992,0,0,0,4.581,2.259Z" transform="translate(4 13)"/>
  <path id="Shape-8" data-name="Shape" d="M4.581,2.259,1.258.125A.794.794,0,0,0,.112.467.992.992,0,0,0,.419,1.741L3.742,3.875A.771.771,0,0,0,4.16,4a.826.826,0,0,0,.727-.467A.992.992,0,0,0,4.581,2.259Z" transform="translate(42 35)"/>
  <path id="Shape-9" data-name="Shape" d="M5.087,0H.913A.959.959,0,0,0,0,1,.959.959,0,0,0,.913,2H5.087A.959.959,0,0,0,6,1,.959.959,0,0,0,5.087,0Z" transform="translate(0 25)"/>
  <path id="Shape-10" data-name="Shape" d="M5.087,0H.913A.959.959,0,0,0,0,1,.959.959,0,0,0,.913,2H5.087A.959.959,0,0,0,6,1,.959.959,0,0,0,5.087,0Z" transform="translate(45 25)"/>
  <path id="Shape-11" data-name="Shape" d="M4.888.467A.794.794,0,0,0,3.742.125L.419,2.259A.992.992,0,0,0,.112,3.533.826.826,0,0,0,.84,4a.771.771,0,0,0,.419-.125L4.581,1.741A.992.992,0,0,0,4.888.467Z" transform="translate(4 35)"/>
  <path id="Shape-12" data-name="Shape" d="M4.888.467A.794.794,0,0,0,3.742.125L.419,2.259A.992.992,0,0,0,.112,3.533.826.826,0,0,0,.84,4a.771.771,0,0,0,.419-.125L4.581,1.741A.992.992,0,0,0,4.888.467Z" transform="translate(42 13)"/>
  <path id="Shape-13" data-name="Shape" d="M3.533.113A.992.992,0,0,0,2.259.42L.125,3.742A.794.794,0,0,0,.467,4.888,1.011,1.011,0,0,0,.932,5a.957.957,0,0,0,.809-.419L3.875,1.258A.794.794,0,0,0,3.533.113Z" transform="translate(35 4)"/>
  <path id="Shape-14" data-name="Shape" d="M6.658,8.394,2.385,5,6.658,1.606A.892.892,0,0,0,6.795.335.933.933,0,0,0,5.5.2L.342,4.3a.893.893,0,0,0,0,1.4L5.5,9.8a.933.933,0,0,0,1.3-.134A.892.892,0,0,0,6.658,8.394Z" transform="translate(15 21)"/>
  <path id="Shape-15" data-name="Shape" d="M6.658,4.3,1.5.2a.933.933,0,0,0-1.3.134A.892.892,0,0,0,.342,1.606L4.615,5,.342,8.394A.892.892,0,0,0,.205,9.665.933.933,0,0,0,1.5,9.8L6.658,5.7a.893.893,0,0,0,0-1.4Z" transform="translate(30 21)"/>
  <path id="Shape-16" data-name="Shape" d="M6.471.07A.848.848,0,0,0,5.345.553L.067,13.753A.915.915,0,0,0,.529,14.93.824.824,0,0,0,.86,15a.861.861,0,0,0,.794-.553l5.278-13.2A.915.915,0,0,0,6.471.07Z" transform="translate(21 18)"/>
</svg>
