<?xml version="1.0" encoding="utf-8"?>
<!-- Generator: Adobe Illustrator 22.0.1, SVG Export Plug-In . SVG Version: 6.00 Build 0)  -->
<svg version="1.1" id="Layer_1" xmlns="http://www.w3.org/2000/svg" xmlns:xlink="http://www.w3.org/1999/xlink" x="0px" y="0px"
	 viewBox="0 0 146.2 148.4" style="enable-background:new 0 0 146.2 148.4;" xml:space="preserve">
<style type="text/css">
	.st0{fill:#FFFFFF;}
</style>
<g id="Group_1" transform="translate(-724.404 -1691.812)">
	<g id="mobile-app-developing" transform="translate(780 1736)">
		<path id="Shape" class="st0" d="M47.1,99.8h-71.6c-1.5,0-2.8-1.3-2.8-2.8V-36.4c0-1.5,1.3-2.8,2.8-2.8h71.8c1.3,0,2.6,1.3,2.6,2.8
			v30.6c0,1.5-1,2.8-2.6,2.8s-2.8-1-2.8-2.6v-0.3v-12.9h-66.4v87h66.4V55.8c0-1.5,1-2.8,2.6-2.8s2.8,1,2.8,2.6v0.3V97
			C49.9,98.5,48.6,99.8,47.1,99.8z M-21.9,74.1v20.1h66.4V74.1H-21.9z M-21.9-33.5v9.3h66.4v-9.3H-21.9z"/>
		<circle id="Oval-2" class="st0" cx="10" cy="83.1" r="3.9"/>
		<path id="Shape-2" class="st0" d="M5.1,61.2c-0.3,0-0.3,0-0.5,0c-1.5-0.5-2.6-2.1-2.1-3.6l0.3-2.1c-0.5-0.3-0.8-0.5-1.3-0.8
			l-1,1.5c-0.5,0.8-1.3,1-2.1,1c-0.5,0-1.3-0.3-1.8-0.8c-1-1.3-1.3-2.8-0.3-4.4l1-1.5c-0.3-0.5-0.5-0.8-0.8-1.3l-1.8,0.8
			c-0.3,0-0.5,0.3-1,0.3c-1.3,0-2.1-0.8-2.6-2.1c-0.5-1.5,0.3-3.1,1.5-3.9l1.8-0.8c0-0.5,0-1,0-1.5l-1.8-0.3
			c-1.5-0.5-2.6-2.1-2.1-3.6c0-1.3,1.3-2.3,2.6-2.6c0.3,0,0.3,0,0.5,0l1.8,0.3c0.3,0,0.3-0.5,0.5-1l-1.3-1.3c-1-1.3-1.3-2.8-0.3-4.4
			c0.5-0.8,1.3-1,2.1-1c0.5,0,1.3,0.3,1.8,0.8l1.3,1.3c0.3-0.3,0.8-0.5,1-1l-0.5-2.1c-0.5-1.5,0.3-3.1,1.5-3.9c0.3,0,0.5-0.3,1-0.3
			c1.3,0,2.1,0.8,2.6,2.1l0.5,2.1c0.5,0,1-0.3,1.3-0.3l0.3-2.1c0-1.3,1.3-2.3,2.6-2.6c0.3,0,0.3,0,0.5,0c1.5,0.5,2.6,2.1,2.1,3.6
			L12.4,28c0.5,0.3,0.8,0.5,1.3,0.8l1-1.5c0.5-0.8,1.3-1,2.1-1c0.5,0,1.3,0.3,1.8,0.8c1,1.3,1.3,2.8,0.3,4.4l-1,1.5
			c0.3,0.5,0.5,0.8,0.8,1.3l1.8-0.8c0.3,0,0.5-0.3,1-0.3c1.3,0,2.1,0.8,2.6,2.1c0.5,1.5-0.3,3.1-1.5,3.9l-1.8,0.8c0,0.5,0,1,0.3,1.5
			l1.8,0.3c1.5,0.5,2.6,2.1,2.1,3.6c0,1.3-1.3,2.3-2.6,2.6c-0.3,0-0.3,0-0.5,0l-1.8-0.3c-0.8,0.3-0.8,0.8-1,1.3l1.3,1.3
			c1,1.3,1.3,2.8,0.3,4.4c-0.5,0.8-1.3,1-2.1,1c-0.5,0-1.3-0.3-1.8-0.8l-1-1.3c-0.3,0.3-0.8,0.5-1,1l0.5,2.1
			c0.5,1.5-0.3,3.1-1.5,3.9c-0.3,0-0.5,0.3-1,0.3c-1.3,0-2.1-0.8-2.6-2.1l-0.5-2.1c-0.5,0-1,0.3-1.3,0.3l-0.3,1.8
			C7.5,60.2,6.4,61.2,5.1,61.2z M7.5,33.1c-3.9,0.3-6.9,3.3-7.5,7.2c-0.8,4.4,1.8,8.8,6.2,10c0.5,0,0.8,0,1.3,0
			c3.9-0.3,7-3.3,7.5-7.2c0.8-4.4-1.8-8.8-6.2-10C8.2,33.1,8,33.1,7.5,33.1z"/>
		<path id="Shape-3" class="st0" d="M48.6,48.3c-1.5,0-2.8-1.3-2.8-2.8v-3.3c-1-0.3-2.1-0.5-2.8-0.8l-1.5,2.8
			c-0.5,0.8-1.3,1.5-2.3,1.5c-0.5,0-1-0.3-1.3-0.3c-1.3-0.8-1.8-2.6-1-3.9l1.5-2.8c-0.8-0.8-1.5-1.5-2.1-2.3L33.7,38
			c-0.5,0.3-0.8,0.5-1.3,0.5c-1,0-1.8-0.5-2.3-1.5c-1.3-1.5-0.8-3.3,0.5-4.1l2.6-1.5c-0.3-1-0.5-2.1-0.8-3.1h-3.1
			c-1.5,0-2.8-1.5-2.8-3.1s1.3-2.6,2.8-2.8h3.1c0.3-1,0.5-2.1,0.8-3.1l-2.6-1.5c-1.3-0.8-1.8-2.6-1-3.9c0.5-0.8,1.3-1.5,2.3-1.5
			c0.5,0,1,0.3,1.3,0.5l2.6,1.5c0.5-0.8,1.3-1.5,2.1-2.3l-1.5-2.8c-0.8-1.3-0.3-3.1,1-3.9c0.5-0.3,0.8-0.5,1.3-0.5
			c1,0,1.8,0.5,2.3,1.5l1.5,2.8c1-0.3,1.8-0.8,2.8-0.8V5.1c0-1.5,1-2.8,2.6-2.8s2.8,1,2.8,2.6v0.3v3.3c1,0.3,2.1,0.5,2.8,0.8
			l1.5-2.8c0.5-0.8,1.3-1.5,2.3-1.5c0.5,0,1,0.3,1.3,0.5c1.3,0.8,1.8,2.6,1,3.9L58.2,12c0.8,0.8,1.5,1.5,2.1,2.3l2.6-1.5
			c0.5-0.3,0.8-0.5,1.3-0.5c1,0,1.8,0.5,2.3,1.5c0.8,1.3,0.3,3.1-1,3.9l-2.6,1.5c0.3,1,0.5,2.1,0.8,3.1h3.1c1.5,0,2.8,1.5,2.8,3.1
			c0,1.5-1.3,2.6-2.8,2.8h-3.1c-0.3,1-0.5,2.1-0.8,3.1l2.6,1.5c1.3,0.8,1.8,2.6,1,3.9c-0.5,0.8-1.3,1.5-2.3,1.5
			c-0.5,0-1-0.3-1.3-0.5l-2.6-1.5c-0.5,0.8-1.3,1.5-2.1,2.3l1.5,2.8c0.8,1.3,0.3,3.1-1,3.9c-0.5,0.3-0.8,0.3-1.3,0.3
			c-1,0-1.8-0.5-2.3-1.5l-1.5-2.8c-1,0.3-1.8,0.8-2.8,0.8v3.3C51.5,47,50.2,48.3,48.6,48.3z M48.6,13.6c-6.2,0.3-11.1,5.4-10.8,11.6
			c-0.3,6.2,4.6,11.3,10.8,11.6c6.2-0.3,11.1-5.4,10.8-11.6C59.7,19,54.8,13.8,48.6,13.6z"/>
	</g>
</g>
</svg>
