<?xml version="1.0" encoding="utf-8"?>
<!-- Generator: Adobe Illustrator 22.1.0, SVG Export Plug-In . SVG Version: 6.00 Build 0)  -->
<svg version="1.1" id="Layer_1" xmlns="http://www.w3.org/2000/svg" xmlns:xlink="http://www.w3.org/1999/xlink" x="0px" y="0px"
	 viewBox="0 0 1920 960" style="enable-background:new 0 0 1920 960;" xml:space="preserve">
<style type="text/css">
	.st0{fill:#6F6D68;}
	.st1{fill:#00CB97;}
</style>
<g id="Page-1">
	<g id="Group">
		<g id="Logo">
			<g id="Type" transform="translate(82.000000, 18.000000)">
				<g>
					<g id="Typeface_8_" transform="translate(0.450820, 0.360656)">
						<path id="We-LiVe-In-Details_8_" class="st0" d="M704.7,652.4l1.9,10.2l0,0l2.8-10.2l13.9-46.4h4.6l13.9,46.4l2.8,10.2l0,0
							l1.9-10.2l12.1-46.4h5.6l-16.7,64.9h-5.6l-14.8-49.2l-1.9-6.5l0,0l-1.9,6.5l-13.9,49.2h-4.6L688,606h5.6L704.7,652.4z
							 M830.8,639.4h-31.5v26.9h35.2v4.6h-40.8V606h40.8v4.6h-35.2v24.1h31.5V639.4z M914.3,666.3h31.5v4.6h-37.1V606h5.6V666.3z
							 M982.9,670.9h-5.6V606h5.6V670.9z M1038.6,659.8l0.9,4.6l0,0l0.9-4.6l19.5-53.8h5.6l-24.1,64.9h-3.7l-24.1-64.9h5.6
							L1038.6,659.8z M1133.2,639.4h-31.5v26.9h35.2v4.6h-40.8V606h40.8v4.6h-35.2v24.1h31.5V639.4z M1216.7,670.9h-5.6V606h5.6
							V670.9z M1302.9,670.9h-5.6l-37.1-55.7l0,0v55.7h-5.6V606h5.6l37.1,55.7l0,0V606h5.6V670.9z M1380.9,670.9V606h18.6
							c8.3,0,14.8,2.8,19.5,8.3c5.6,5.6,7.4,12.1,7.4,20.4v8.3c0,8.3-2.8,14.8-7.4,20.4c-5.6,5.6-12.1,7.4-19.5,7.4L1380.9,670.9
							L1380.9,670.9z M1386.4,610.6v55.7h13.9c6.5,0,12.1-1.9,15.8-6.5c3.7-4.6,6.5-10.2,6.5-16.7v-8.3c0-6.5-1.9-12.1-6.5-16.7
							c-3.7-4.6-9.3-6.5-15.8-6.5h-13.9V610.6z M1496.8,639.4h-31.5v26.9h36.2v4.6h-40.8V606h40.8v4.6h-35.2v24.1h31.5v4.6
							L1496.8,639.4L1496.8,639.4z M1576.6,610.6h-22.3v60.3h-5.6v-60.3h-22.3V606h50.1V610.6z M1638.7,653.3H1609l-6.5,17.6h-5.6
							l24.1-64.9h4.6l24.1,64.9h-5.6L1638.7,653.3z M1610.9,647.8h26l-13-35.2l0,0L1610.9,647.8z M1686.9,670.9h-5.6V606h5.6V670.9z
							 M1729.6,666.3h31.5v4.6H1724V606h5.6L1729.6,666.3L1729.6,666.3z M1828.9,655.2c0-3.7-0.9-6.5-3.7-8.3
							c-2.8-1.9-7.4-4.6-13.9-5.6c-7.4-1.9-12.1-3.7-15.8-6.5c-3.7-2.8-5.6-6.5-5.6-11.1s1.9-9.3,6.5-12.1c3.7-2.8,9.3-4.6,15.8-4.6
							s12.1,1.9,15.8,5.6c3.7,3.7,6.5,8.3,5.6,13.9l0,0h-4.6c0-4.6-1.9-7.4-4.6-10.2c-2.8-2.8-7.4-3.7-12.1-3.7
							c-5.6,0-9.3,0.9-12.1,3.7c-2.8,2.8-4.6,5.6-4.6,8.3c0,3.7,0.9,5.6,3.7,8.3c2.8,2.8,7.4,3.7,13.9,5.6
							c6.5,1.9,12.1,3.7,15.8,7.4c3.7,2.8,5.6,7.4,5.6,12.1c0,5.6-1.9,9.3-6.5,12.1c-4.6,2.8-9.3,4.6-15.8,4.6s-12.1-1.9-16.7-4.6
							c-4.6-2.8-7.4-8.3-7.4-13.9l0,0h4.6c0,4.6,1.9,8.3,5.6,11.1c3.7,2.8,8.3,3.7,13,3.7c5.6,0,9.3-0.9,12.1-3.7
							C1827.9,661.7,1828.9,658.9,1828.9,655.2z"/>
						<g id="Group-31_8_" transform="translate(0.000000, 0.435159)">
							<path id="Fill-26_8_" class="st0" d="M930.1,276.6v258.8c0,4.6-3.7,9.3-9.3,9.3c-30.6,0-55.7-25-55.7-55.7v-51h-115v51
								c0,30.6-25,55.7-55.7,55.7c-4.6,0-9.3-3.7-9.3-9.3V276.6c0-4.6,3.7-9.3,9.3-9.3c30.6,0,55.7,25,55.7,55.7v51h115v-51.9
								c0-30.6,25-55.7,55.7-55.7C925.4,267.4,930.1,271.1,930.1,276.6"/>
							<path id="Fill-27_8_" class="st0" d="M1196.3,277.6l-6.5,46.4c-0.9,4.6-4.6,8.3-9.3,8.3H1059V374h104.8
								c5.6,0,10.2,4.6,9.3,10.2l-6.5,46.4c-0.9,4.6-4.6,8.3-9.3,8.3H1059v40.8h128c5.6,0,10.2,4.6,9.3,10.2l-6.5,46.4
								c-0.9,4.6-4.6,8.3-9.3,8.3h-149.3c-20.4,0-37.1-16.7-37.1-37.1V303.5c0-20.4,16.7-37.1,37.1-37.1H1187
								C1192.6,267.4,1197.2,272,1196.3,277.6"/>
							<path id="Fill-28_8_" class="st0" d="M1632.2,414.8v-83.5h14.8c21.3,0,39.9,13,47.3,32.5l20.4,51L1632.2,414.8L1632.2,414.8z
								 M1773.2,543.8h56.6c3.7,0,5.6-3.7,4.6-6.5l-75.1-184.6c-21.3-51.9-71.4-86.3-127.1-86.3h-55.7c-4.6,0-9.3,3.7-9.3,9.3v258.8
								c0,4.6,3.7,9.3,9.3,9.3h46.4c4.6,0,9.3-3.7,9.3-9.3v-55.7l108.5-0.9l24.1,60.3C1766.7,541.9,1769.5,543.8,1773.2,543.8z"/>
							<path id="Fill-29_8_" class="st0" d="M1335.4,415.8l-81.6,121.5c-1.9,2.8,0,7.4,3.7,7.4h26c24.1,0,47.3-12.1,61.2-32.5
								l27.8-40.8L1335.4,415.8z"/>
							<path id="Fill-30_8_" class="st0" d="M1506.1,537.3l-89-132.6l88.1-129.9c1.9-2.8,0-7.4-3.7-7.4h-26
								c-24.1,0-47.3,12.1-61.2,32.5l-34.3,50.1l-33.4-50.1c-13.9-20.4-37.1-32.5-61.2-32.5h-26c-3.7,0-5.6,3.7-3.7,7.4l85.3,126.1
								l47.3,70.5l27.8,40.8c13.9,20.4,37.1,32.5,61.2,32.5h26C1506.1,543.8,1508.9,540,1506.1,537.3"/>
						</g>
					</g>
				</g>
			</g>
			<g id="Mark">
				<path id="Fill-1" class="st0" d="M143,580.2V368.7L326.6,263l183.7,105.7L650.3,288L359.1,119.2c-20.4-11.1-44.5-11.1-64.9,0
					L35.4,268.6C14.9,279.7,2.9,301,2.9,324.2v298.7c0,23.2,12.1,44.5,32.5,55.7l291.2,167.9V686L143,580.2z"/>
				<path id="Fill-6" class="st1" d="M617.8,679.5l-108.5,62.1V580.2l140.1-80.7v124.3C649.4,647,637.3,668.3,617.8,679.5"/>
				<path id="Path" class="st1" d="M466.7,555.2l183.7-105.7V288L359.1,455.9c-20.4,11.1-32.5,32.5-32.5,55.7v335.8l140.1-80.7
					V555.2z"/>
			</g>
		</g>
	</g>
</g>
</svg>
