<svg id="network_1_" data-name="network (1)" xmlns="http://www.w3.org/2000/svg" viewBox="0 0 62 50">
  <path id="Shape" d="M20.842,10H1.158A1.145,1.145,0,0,1,0,8.871C0,3.4,4.215,0,11,0S22,3.4,22,8.871A1.145,1.145,0,0,1,20.842,10ZM11,2.257c-1.824,0-7.836.4-8.6,5.486H19.6C18.835,2.653,12.824,2.257,11,2.257Z" transform="translate(20 12)"/>
  <path id="Shape-2" data-name="Shape" d="M5.5,11A5.5,5.5,0,1,1,11,5.5,5.522,5.522,0,0,1,5.5,11Zm0-8.684A3.184,3.184,0,1,0,8.684,5.5,3.188,3.188,0,0,0,5.5,2.316Z" transform="translate(25)"/>
  <path id="Shape-3" data-name="Shape" d="M20.842,10H1.158A1.145,1.145,0,0,1,0,8.871C0,3.4,4.215,0,11,0S22,3.4,22,8.871A1.145,1.145,0,0,1,20.842,10ZM11,2.257A13.125,13.125,0,0,0,6.268,3.1,5.772,5.772,0,0,0,2.4,7.743H19.6A5.772,5.772,0,0,0,15.731,3.1,13.125,13.125,0,0,0,11,2.257Z" transform="translate(0 40)"/>
  <path id="Shape-4" data-name="Shape" d="M5.5,11A5.5,5.5,0,1,1,11,5.5,5.522,5.522,0,0,1,5.5,11Zm0-8.684A3.184,3.184,0,1,0,8.684,5.5,3.188,3.188,0,0,0,5.5,2.316Z" transform="translate(6 27)"/>
  <path id="Shape-5" data-name="Shape" d="M20.842,10H1.158A1.145,1.145,0,0,1,0,8.871C0,3.4,4.215,0,11,0S22,3.4,22,8.871A1.145,1.145,0,0,1,20.842,10ZM11,2.257A13.125,13.125,0,0,0,6.268,3.1,5.772,5.772,0,0,0,2.4,7.743H19.6A5.772,5.772,0,0,0,15.731,3.1,13.125,13.125,0,0,0,11,2.257Z" transform="translate(40 40)"/>
  <path id="Shape-6" data-name="Shape" d="M5.5,11A5.5,5.5,0,1,1,11,5.5,5.522,5.522,0,0,1,5.5,11Zm0-8.684A3.184,3.184,0,1,0,8.684,5.5,3.188,3.188,0,0,0,5.5,2.316Z" transform="translate(45 27)"/>
  <path id="Shape-7" data-name="Shape" d="M12.713,13.007,7.73,8.093V1.173a1.2,1.2,0,0,0-2.39,0v6.92L.357,12.984a1.162,1.162,0,0,0-.012,1.665,1.216,1.216,0,0,0,1.7.012l4.493-4.422,4.493,4.422a1.21,1.21,0,0,0,1.685-.128A1.156,1.156,0,0,0,12.713,13.007Z" transform="translate(25 25)"/>
</svg>
