<?xml version="1.0" encoding="utf-8"?>
<!-- Generator: Adobe Illustrator 22.0.1, SVG Export Plug-In . SVG Version: 6.00 Build 0)  -->
<svg version="1.1" id="Layer_1" xmlns="http://www.w3.org/2000/svg" xmlns:xlink="http://www.w3.org/1999/xlink" x="0px" y="0px"
	 viewBox="0 0 157.8 156.1" style="enable-background:new 0 0 157.8 156.1;" xml:space="preserve">
<style type="text/css">
	.st0{fill:#FFFFFF;}
</style>
<g id="Group_2" transform="translate(-475.583 -1687.946)">
	<g id="web-design" transform="translate(527 1733)">
		<path id="Shape" class="st0" d="M26.9,34.8c-1.4,0-2.4,1-2.4,2.4s1,2.4,2.4,2.4c1.4,0,2.4-1,2.4-2.4S28.3,34.8,26.9,34.8z"/>
		<path id="Shape-2" class="st0" d="M26.9,49.3c-1.4,0-2.4,1-2.4,2.4s1,2.4,2.4,2.4c1.4,0,2.4-1,2.4-2.4S28.3,49.3,26.9,49.3z"/>
		<path id="Shape-3" class="st0" d="M26.9,66.1c-1.4,0-2.4,1-2.4,2.4c0,1.4,1,2.4,2.4,2.4c1.4,0,2.4-1,2.4-2.4
			C29.3,67.1,28.3,66.1,26.9,66.1z"/>
		<path id="Shape-4" class="st0" d="M17,34.8H-4.2c-1.4,0-2.6,1-2.6,2.4s1.2,2.4,2.6,2.4H17c1.4,0,2.6-1,2.6-2.4S18.4,34.8,17,34.8z
			"/>
		<path id="Shape-5" class="st0" d="M60.3,34.8H39.2c-1.4,0-2.6,1-2.6,2.4s1.2,2.4,2.6,2.4h21.2c1.4,0,2.6-1,2.6-2.4
			S61.8,34.8,60.3,34.8z"/>
		<path id="Shape-6" class="st0" d="M17,49.3H-4.2c-1.4,0-2.6,1-2.6,2.4s1.2,2.4,2.6,2.4H17c1.4,0,2.6-1,2.6-2.4S18.4,49.3,17,49.3z
			"/>
		<path id="Shape-7" class="st0" d="M60.3,49.3H39.2c-1.4,0-2.6,1-2.6,2.4s1.2,2.4,2.6,2.4h21.2c1.4,0,2.6-1,2.6-2.4
			S61.8,49.3,60.3,49.3z"/>
		<path id="Shape-8" class="st0" d="M17,66.1H-4.2c-1.4,0-2.6,1-2.6,2.4c0,1.4,1.2,2.4,2.6,2.4H17c1.4,0,2.6-1,2.6-2.4
			C19.6,67.1,18.4,66.1,17,66.1z"/>
		<path id="Shape-9" class="st0" d="M60.3,66.1H39.2c-1.4,0-2.6,1-2.6,2.4c0,1.4,1.2,2.4,2.6,2.4h21.2c1.4,0,2.6-1,2.6-2.4
			C63,67.1,61.8,66.1,60.3,66.1z"/>
		<path id="Shape-10" class="st0" d="M78.9,99.9c-4.8,0-9.1-3.4-10.4-7.9h-80.9c-1.4,5.8-7.2,9.1-13,7.7c-5.8-1.4-9.1-7.2-7.7-13
			c1-3.9,3.9-6.7,7.7-7.7v-95.1c-5.8-1.4-9.1-7.2-7.7-13s7.2-9.1,13-7.7c3.9,1,6.7,3.9,7.7,7.7h80.7c1.4-5.8,7.2-9.1,13-7.7
			c5.8,1.4,9.1,7.2,7.7,13c-1,3.9-3.9,6.7-7.7,7.7v95.1c5.8,1.4,9.1,7.5,7.7,13C87.8,96.5,83.7,99.9,78.9,99.9z M78.9,83.7
			c-2.9,0-5.3,2.4-5.3,5.3s2.4,5.3,5.3,5.3c2.9,0,5.3-2.4,5.3-5.3l0,0C84.2,86.1,81.8,83.7,78.9,83.7z M-22.7,83.7
			c-2.9,0-5.3,2.4-5.3,5.3s2.4,5.3,5.3,5.3s5.3-2.4,5.3-5.3l0,0C-17.2,86.1-19.6,83.7-22.7,83.7z M-12.4-23.9
			c-1,3.6-3.9,6.7-7.7,7.7v95.1c3.9,1,6.7,3.9,7.7,7.7h80.7c1-3.9,3.9-6.7,7.7-7.7v-95.1c-3.9-1-6.7-3.9-7.7-7.7L-12.4-23.9z
			 M78.9-32.1c-2.9,0-5.3,2.4-5.3,5.3s2.4,5.3,5.3,5.3c2.9,0,5.3-2.4,5.3-5.3l0,0C84.2-29.7,81.8-32.1,78.9-32.1z M-22.7-32.1
			c-2.9,0-5.3,2.4-5.3,5.3s2.4,5.3,5.3,5.3s5.3-2.4,5.3-5.3l0,0C-17.2-29.7-19.6-32.1-22.7-32.1z"/>
		<path id="Shape-11" class="st0" d="M60.3,22.8H-4.2c-1.4,0-2.6-1.2-2.6-2.6v-26c0-1.4,1.2-2.6,2.6-2.6l0,0h64.5
			c0.7,0,1.4,0.2,1.9,0.7C62.7-7.3,63-6.6,63-5.9v26c0,0.7-0.2,1.4-0.7,1.9C61.8,22.6,61.1,22.8,60.3,22.8z M28.1,10L28.1,10
			L9.3,17.7h37.6L28.1,10z M57.7-2L57.7-2L35.1,7.2l22.6,9.1V-2z M-1.5-2v18.3l22.6-9.1L-1.5-2z M9.3-3.2l18.8,7.7l18.8-7.7H9.3z"/>
	</g>
</g>
</svg>
